<?xml version="1.0" encoding="UTF-8"?>
<svg width="400" height="300" viewBox="0 0 400 300" xmlns="http://www.w3.org/2000/svg">
    <!-- Background -->
    <rect width="400" height="300" fill="#f8f9fa"/>
    
    <!-- Network of People -->
    <circle cx="200" cy="150" r="40" fill="white" stroke="#0056b3" stroke-width="2"/>
    <circle cx="100" cy="100" r="30" fill="white" stroke="#0056b3" stroke-width="2"/>
    <circle cx="300" cy="100" r="30" fill="white" stroke="#0056b3" stroke-width="2"/>
    <circle cx="100" cy="200" r="30" fill="white" stroke="#0056b3" stroke-width="2"/>
    <circle cx="300" cy="200" r="30" fill="white" stroke="#0056b3" stroke-width="2"/>
    
    <!-- Connecting Lines -->
    <line x1="200" y1="150" x2="100" y2="100" stroke="#0056b3" stroke-width="2"/>
    <line x1="200" y1="150" x2="300" y2="100" stroke="#0056b3" stroke-width="2"/>
    <line x1="200" y1="150" x2="100" y2="200" stroke="#0056b3" stroke-width="2"/>
    <line x1="200" y1="150" x2="300" y2="200" stroke="#0056b3" stroke-width="2"/>
    
    <!-- Person Icons -->
    <path d="M190 140 L210 140 M200 130 L200 150" stroke="#0056b3" stroke-width="2"/>
    <path d="M90 90 L110 90 M100 80 L100 100" stroke="#0056b3" stroke-width="2"/>
    <path d="M290 90 L310 90 M300 80 L300 100" stroke="#0056b3" stroke-width="2"/>
    <path d="M90 190 L110 190 M100 180 L100 200" stroke="#0056b3" stroke-width="2"/>
    <path d="M290 190 L310 190 M300 180 L300 200" stroke="#0056b3" stroke-width="2"/>
</svg> 